<svg width="39" height="36" viewBox="0 0 39 36" fill="none" xmlns="http://www.w3.org/2000/svg">
<path d="M38.3672 18C38.3505 16.0413 35.6885 14.6183 32.491 14.6183H25.7444C24.8069 14.6183 24.4553 14.4677 23.9029 13.8315L12.6529 1.56029C12.3013 1.15851 11.866 0.957581 11.3638 0.957581H9.42181C8.9866 0.957581 8.73545 1.34265 8.9531 1.81137L14.7455 14.6183L6.24103 15.5893L3.21088 10.0312C2.99324 9.61272 2.62496 9.42858 2.07253 9.42858H1.35267C0.917384 9.42858 0.632812 9.71315 0.632812 10.1484V25.8516C0.632812 26.2869 0.917384 26.5547 1.35267 26.5547H2.07253C2.62496 26.5547 2.99324 26.3706 3.21088 25.9688L6.24103 20.4107L14.7455 21.3817L8.9531 34.1887C8.73545 34.6406 8.9866 35.0424 9.42181 35.0424H11.3638C11.866 35.0424 12.3013 34.8248 12.6529 34.4397L23.9029 22.1518C24.4553 21.5324 24.8069 21.3817 25.7444 21.3817H32.491C35.6885 21.3817 38.3505 19.942 38.3672 18Z" fill="#454545"/>
</svg>
