<svg width="40" height="40" viewBox="0 0 40 40" fill="none" xmlns="http://www.w3.org/2000/svg">
<g clip-path="url(#clip0_18_37)">
<path d="M38.7596 13.0565C38.4114 12.114 37.992 11.2026 37.5102 10.3327C36.5982 8.6852 35.4626 7.17855 34.1407 5.85916C34.1084 5.82689 34.0818 5.79963 34.0495 5.76736H34.0473C34.0098 5.73017 33.9741 5.69424 33.9345 5.65767L33.9317 5.6558C33.8185 5.54291 33.7014 5.43072 33.5835 5.32587C30.0195 2.02037 25.2398 0.000274658 19.9998 0.000274658C16.957 0.000274658 14.0692 0.681688 11.4864 1.89889C11.3091 1.98256 11.1323 2.06873 10.9588 2.15748C9.06422 3.11913 7.34336 4.37282 5.85867 5.85916C3.68734 8.02801 2.01383 10.6991 1.02086 13.6803C0.970938 13.8304 0.921641 13.9829 0.875469 14.1348L0.869531 14.1516C0.837891 14.2545 0.807578 14.3611 0.777813 14.4666C0.704063 14.7189 0.636719 14.9713 0.575312 15.2286C0.551094 15.3173 0.531328 15.4066 0.511406 15.4971C0.176719 16.9442 0 18.4521 0 20.0003C0 25.5181 2.24078 30.5262 5.85867 34.1416C7.89461 36.1766 10.3704 37.7769 13.1302 38.7888C13.216 38.8204 13.3037 38.8521 13.3927 38.8811C13.92 39.0671 14.4595 39.2302 15.0066 39.371C15.1021 39.3952 15.1995 39.4193 15.2971 39.4404C16.806 39.8068 18.3821 40.0003 19.9998 40.0003C25.518 40.0003 30.5252 37.7601 34.1406 34.1415C34.8041 33.48 35.4187 32.7725 35.9812 32.0222C38.5027 28.6766 40 24.5086 40 20.0003C40 17.5605 39.5613 15.2204 38.7596 13.0565ZM7.40539 32.5958C4.18063 29.3674 2.18867 24.9222 2.18867 20.0003C2.18867 19.0907 2.25664 18.199 2.38805 17.3279C2.99477 17.7521 4.10148 18.3455 4.11547 18.3486C4.15695 18.3616 4.20469 18.3684 4.26242 18.3684C4.35203 18.3684 4.45961 18.3523 4.57086 18.3344C4.68836 18.317 4.80805 18.2997 4.9032 18.2997C4.93297 18.2997 4.96117 18.3009 4.98352 18.3052C5.02469 18.3238 5.09234 18.4801 5.12797 18.5638C5.2018 18.7325 5.27742 18.9073 5.43305 18.9836C5.5775 19.0567 5.89 19.0946 6.34789 19.1435C6.49953 19.1603 6.65453 19.1789 6.73414 19.1919C6.76391 19.2464 6.80016 19.3798 6.82406 19.4728C6.89383 19.7345 6.96297 20.0017 7.16227 20.1208C7.32758 20.2219 7.86664 20.7346 8.16742 21.0366C8.20711 21.075 8.25695 21.0949 8.30875 21.0949C8.34195 21.0949 8.3782 21.0868 8.40797 21.067C8.43188 21.0533 8.95695 20.7458 9.14023 20.6311C9.17836 20.6434 9.24594 20.6863 9.30734 20.739C9.31695 21.0273 9.35352 21.981 9.35531 22.1738C9.32156 22.2935 8.92133 22.7094 8.47984 23.0827C8.43617 23.1193 8.40953 23.1707 8.40797 23.2259C8.40609 23.2804 8.35828 24.5397 8.40797 25.0458C8.46 25.5585 9.30141 26.5605 9.52773 26.8209C9.62352 27.0808 9.88453 27.7721 9.98414 27.9203C10.0836 28.0697 11.0927 28.8268 11.7416 29.3061V32.2897C11.7416 32.624 11.8721 32.8422 11.9763 33.0195C12.0402 33.1249 12.0897 33.208 12.0897 33.2836V35.3732C12.0897 35.6448 12.1688 35.8674 12.2784 36.0559C10.4618 35.1802 8.81781 34.0058 7.40539 32.5958ZM35.4229 12.6374C35.0741 12.3894 34.5272 12.2895 34.5272 12.2895L34.1288 12.2387C33.9301 11.8412 34.0296 10.9459 33.3334 11.1443C32.6364 11.3439 30.3479 11.7413 29.8503 11.8412C29.3534 11.9404 28.7559 12.7359 28.3582 13.3331C27.9598 13.9301 26.8655 15.8212 26.6665 16.1195C26.4677 16.4177 26.3679 18.3089 26.3679 18.8055C26.3679 19.3041 28.5576 21.3936 29.2535 21.4928C29.9502 21.592 31.8402 21.0947 32.3382 20.9955C32.8358 20.895 33.134 21.592 33.5321 21.592C33.9302 21.592 34.4277 21.791 34.0296 22.3893C33.6316 22.9846 33.6316 23.2834 34.0296 23.6815C34.4277 24.0802 35.2235 25.5726 34.7259 26.7669C34.2284 27.9604 34.6271 28.5569 34.9253 29.0548C34.9823 29.1502 35.0425 29.2829 35.1064 29.4392C34.3894 30.5825 33.5458 31.6415 32.5946 32.5958C29.3664 35.8194 24.9213 37.8116 19.9998 37.8116C18.3558 37.8116 16.7663 37.5877 15.2556 37.1735C15.2619 37.1487 15.2677 37.1209 15.272 37.0923C15.2971 36.9057 15.22 36.7668 15.1403 36.6688C15.252 36.6155 15.3412 36.5299 15.4048 36.4158C15.5009 36.2409 15.5166 36.0264 15.5009 35.8571L15.5976 35.859C15.8403 35.859 16.1194 35.8366 16.3341 35.6835C16.686 35.433 16.6926 34.9035 16.6265 34.5358C16.6522 34.547 16.6785 34.5594 16.7024 34.5668C16.7298 34.578 16.7598 34.5805 16.7902 34.5805C17.1086 34.5805 17.4608 34.0081 17.5556 33.6293C17.5919 33.4904 17.7249 33.1829 17.8548 32.8833C18.159 32.1771 18.3419 31.7332 18.3066 31.5125C18.3118 31.3736 18.8575 30.9389 19.3426 30.8415C19.918 30.7268 20.1229 30.5154 20.3399 29.8079C20.547 29.1364 20.6488 28.0179 20.5951 27.5398C20.5793 27.383 20.9187 26.9055 21.1462 26.5893C21.5162 26.0672 21.7415 25.7337 21.7415 25.4732C21.7415 24.8718 21.2356 24.4662 20.8555 24.2127C20.4776 23.9604 19.8148 23.9021 19.3748 23.8654C19.2518 23.8549 19.1441 23.8456 19.0942 23.8351C19.0487 23.8257 18.969 23.739 18.9054 23.672C18.7684 23.5244 18.5805 23.3236 18.282 23.2857C18.2482 23.2814 18.2128 23.2801 18.1791 23.2801C17.9894 23.2801 17.8209 23.3396 17.6558 23.3973C17.5085 23.4507 17.369 23.5015 17.2302 23.5015C17.1877 23.5015 17.1483 23.4966 17.1086 23.4866C17.0348 23.4711 17.0066 23.4507 17.0009 23.4507C17.0025 23.4172 17.0664 23.305 17.2232 23.2007C17.3748 23.0997 17.5184 22.8765 17.3531 22.3705C17.2357 22.006 17.0184 21.6612 16.9316 21.5322C16.6191 21.0629 16.0495 21.0629 15.8626 21.0629C15.6914 21.0629 15.5241 21.0796 15.3526 21.0945L15.3154 21.0957C15.142 21.0957 15.0407 20.9432 14.8435 20.6208C14.7319 20.4378 14.6064 20.2332 14.4321 20.0224C14.0533 19.5685 13.5245 19.5084 13.0547 19.5084C12.9927 19.5084 12.9331 19.5084 12.8752 19.5109C12.8256 19.5109 12.7775 19.5121 12.7323 19.5121C12.6687 19.5121 12.6107 19.5109 12.5605 19.5041C12.3879 19.4823 12.1309 19.3509 11.9042 19.2344C11.6556 19.1066 11.4206 18.9851 11.2216 18.9572L11.172 18.9535C10.8873 18.9535 10.5652 19.284 10.1055 19.785C9.99141 19.909 9.84445 20.0695 9.76664 20.1371C9.75117 20.1191 9.73094 20.0963 9.71547 20.0763C9.6318 19.9697 9.51805 19.8296 9.3168 19.7614C9.27336 19.7471 9.22938 19.7391 9.1857 19.7391C9.02852 19.7391 8.91133 19.8296 8.8093 19.9077C8.71844 19.9759 8.64063 20.0336 8.54664 20.0336C8.49148 20.0336 8.42758 20.0144 8.35383 19.9747C8.07945 19.8247 8.17055 19.2498 8.2425 18.7885C8.27656 18.5765 8.30852 18.3768 8.30852 18.2087C8.30852 17.8269 8.08281 17.7853 7.98797 17.7853C7.89625 17.7853 7.80664 17.817 7.70312 17.8579C7.58594 17.9001 7.45039 17.9502 7.30906 17.9502C7.24547 17.9502 7.18594 17.9397 7.12828 17.9199C7.01484 17.8827 6.96461 17.843 6.95687 17.8194C6.92898 17.7431 7.07625 17.5187 7.18344 17.3532C7.23312 17.2775 7.28516 17.1981 7.33477 17.1169C7.54219 16.7716 7.64977 16.5168 7.53969 16.3239C7.47172 16.2073 7.34711 16.1465 7.16766 16.1465C7.09852 16.1465 7.02078 16.1546 6.92898 16.1725C6.86133 16.1849 6.7975 16.1911 6.73391 16.1911C6.64844 16.1911 6.58266 16.1793 6.525 16.1694C6.47109 16.1608 6.42953 16.1527 6.39328 16.1527C6.11891 16.1527 6.08516 16.4254 6.07086 16.5433C6.01969 16.9575 5.77102 17.1683 5.33516 17.1683C5.30289 17.1683 5.27195 17.1665 5.23781 17.1646C4.77398 17.1348 4.57656 16.8056 4.57656 16.0696C4.57656 15.7496 4.6268 15.6654 4.77562 15.4143C4.84937 15.2933 4.94109 15.1402 5.05242 14.9157C5.29891 14.424 5.49422 14.3323 5.74281 14.2176C5.81625 14.1828 5.89219 14.1476 5.97008 14.1028C6.02961 14.0669 6.07922 14.0514 6.11484 14.0514C6.14117 14.0514 6.16852 14.062 6.21656 14.0781C6.28258 14.1028 6.37156 14.1345 6.48938 14.1345C6.52313 14.1345 6.55875 14.1333 6.59844 14.1277C6.96461 14.0651 7.04211 13.8505 7.11 13.6614C7.11844 13.6416 7.12578 13.6205 7.13641 13.5938C7.15594 13.6006 7.17578 13.6056 7.19594 13.6093C7.35719 13.6558 7.62594 13.7309 8.05961 13.7309C8.20281 13.7309 8.30641 13.7327 8.38203 13.7371C8.32813 14.0099 8.33 14.5357 8.86906 15.1502C9.04641 15.3511 9.20203 15.4446 9.36078 15.4446C9.87078 15.4446 9.91391 14.5853 9.91391 13.6292C9.91391 13.0513 10.133 12.8932 10.7816 12.43L10.8238 12.399C11.176 12.1491 11.3853 11.8521 11.5877 11.5651C11.807 11.2557 12.0134 10.963 12.4018 10.7212C12.7663 10.4912 13.3352 10.2387 13.8846 9.99194C14.5192 9.70982 15.1179 9.44263 15.3991 9.21818C15.7215 8.95903 15.6576 8.55348 15.6055 8.22426C15.5379 7.80129 15.5578 7.71394 15.7271 7.66363C16.0059 7.58488 16.3044 7.53847 16.6209 7.48879C17.0741 7.41746 17.5441 7.34371 18.0262 7.16206C18.5266 6.9755 18.6425 6.70823 18.6524 6.51534C18.6707 6.18924 18.3895 5.92815 18.1434 5.80479C18.0357 5.7508 18.0234 5.48666 18.0156 5.25228C18.0038 4.95282 17.9921 4.6447 17.7986 4.45368C17.6895 4.34211 17.5497 4.28625 17.3884 4.28625C17.1777 4.28625 16.9509 4.37922 16.6884 4.49024C16.5148 4.56149 16.3201 4.64087 16.113 4.7004C16.0907 4.70665 16.0712 4.71095 16.0554 4.71095C15.9776 4.71095 15.922 4.54915 15.8529 4.32219C15.7466 3.98672 15.5897 3.48453 15.0385 3.48453C14.9768 3.48453 14.9089 3.49015 14.8376 3.50437C14.1351 3.64508 13.9698 4.39844 13.8508 4.949C13.8086 5.14681 13.7432 5.44689 13.6852 5.48658C13.2713 5.48658 13.138 5.75072 13.0085 6.00736C12.9266 6.17112 12.8337 6.35588 12.6523 6.5369C12.5409 6.64854 12.4638 6.67893 12.4415 6.68143C12.4077 6.64979 12.3562 6.40737 12.5729 5.97455C12.6646 5.79291 12.7679 5.52814 12.6405 5.31173C12.4911 5.05876 12.1374 5.04204 11.7291 5.0272C11.566 5.01915 11.3967 5.0129 11.2275 4.99126C10.9048 4.95095 10.8198 4.86907 10.8158 4.85173C10.8158 4.84368 10.8198 4.78782 10.9076 4.68001C13.5681 3.09827 16.676 2.18873 19.9998 2.18873C24.0299 2.18873 27.7405 3.52492 30.7257 5.78002C30.6792 5.96666 30.5283 6.23823 30.3974 6.46706C30.1988 6.81612 30.2983 7.01519 30.2983 7.01519C30.2983 7.01519 31.2438 6.86573 31.4423 6.76659C31.5123 6.7319 31.5755 6.62893 31.6221 6.50432C31.7234 6.58987 31.8227 6.67604 31.9197 6.76659C31.6831 6.98105 31.429 7.20613 31.343 7.26441C31.1942 7.363 30.6966 7.513 30.4973 7.6116C30.2983 7.71144 31.0941 8.05996 31.0941 8.20871C31.0941 8.35817 31.0941 9.0545 30.7955 9.10341C30.4973 9.15365 29.1047 9.15365 29.1047 9.15365C29.1047 9.15365 28.6564 10.7454 28.7559 10.8948C28.8555 11.0448 29.5022 11.3933 29.9005 11.3437C30.2983 11.2923 31.1941 10.8464 31.1941 10.8464L31.5916 9.95108L32.3874 9.10341C32.3874 9.10341 32.9845 9.35201 33.1838 9.15365C33.3826 8.95521 33.7809 8.75685 33.7809 8.75685C33.7809 8.75685 34.179 9.50209 34.4276 9.60201L34.4756 9.62373L34.4769 9.62678C34.7643 10.0224 35.0327 10.4298 35.283 10.8501L35.2855 10.8533V10.8551L35.2891 10.8639C35.3028 10.893 35.3171 10.9191 35.3351 10.9359C35.7427 11.6266 36.1073 12.3445 36.4213 13.088C36.1006 13.067 35.7245 12.8519 35.4229 12.6374Z" fill="#454545" fill-opacity="0.5"/>
</g>
<defs>
<clipPath id="clip0_18_37">
<rect width="40" height="40" fill="white"/>
</clipPath>
</defs>
</svg>
